<?xml version="1.0" standalone="no"?>
<!DOCTYPE svg PUBLIC "-//W3C//DTD SVG 20010904//EN"
 "http://www.w3.org/TR/2001/REC-SVG-20010904/DTD/svg10.dtd">
<svg version="1.0" xmlns="http://www.w3.org/2000/svg"
 width="700.000000pt" height="700.000000pt" viewBox="0 0 700.000000 700.000000"
 preserveAspectRatio="xMidYMid meet">
<metadata>
Created by potrace 1.14, written by Peter Selinger 2001-2017
</metadata>
<g transform="translate(0.000000,700.000000) scale(0.100000,-0.100000)"
fill="#000000" stroke="none">
<path d="M3560 6981 c-79 -26 -148 -91 -168 -160 -8 -25 -12 -134 -12 -315 0
-153 -4 -275 -8 -272 -7 4 -318 76 -395 92 -10 2 -26 5 -35 8 -9 3 -28 7 -42
10 -14 2 -106 23 -205 46 -99 23 -187 43 -195 45 -8 2 -47 11 -86 19 -59 14
-76 15 -109 4 -67 -23 -93 -82 -74 -167 37 -163 67 -308 74 -356 3 -27 10 -66
15 -85 5 -19 12 -60 15 -90 3 -30 8 -62 10 -70 2 -8 7 -40 10 -70 11 -90 15
-123 20 -160 6 -45 16 -152 20 -210 2 -25 7 -94 11 -155 5 -60 9 -245 9 -410
0 -325 -7 -490 -30 -715 -15 -141 -36 -320 -41 -344 -2 -11 -6 -34 -8 -51 -15
-107 -81 -446 -104 -535 -13 -53 -8 -117 13 -140 39 -43 63 -48 270 -54 471
-14 565 -17 650 -21 50 -2 118 -4 153 -4 l62 -1 0 -506 0 -505 -437 3 -438 3
-80 28 c-274 97 -447 320 -481 622 -3 33 -8 63 -10 66 -2 3 -6 20 -9 38 -8 49
-43 112 -77 143 -55 50 -112 61 -325 61 l-193 1 2 395 3 396 50 -2 c28 -1 122
-5 211 -9 l160 -7 35 31 c26 22 42 51 62 109 15 43 30 89 32 103 23 107 26
132 41 265 6 51 6 443 0 512 -2 28 -7 78 -10 110 -3 32 -8 87 -11 123 -8 87
-53 413 -65 470 -5 25 -11 59 -14 75 -17 117 -30 169 -52 194 -29 34 -50 43
-179 70 -55 12 -116 26 -135 31 -19 5 -50 12 -68 15 -18 3 -124 26 -235 50
-111 25 -215 48 -231 51 -16 3 -32 6 -35 8 -3 2 -22 7 -41 10 -19 3 -66 12
-105 21 -38 9 -79 19 -89 21 -11 2 -72 15 -135 29 -64 13 -123 23 -131 22 -35
-7 -78 -38 -89 -65 -18 -43 -17 -59 9 -177 14 -62 48 -273 55 -340 4 -33 8
-73 10 -90 25 -204 26 -758 1 -890 -2 -11 -7 -50 -10 -87 -4 -37 -9 -77 -11
-90 -2 -13 -9 -54 -15 -93 -6 -38 -20 -113 -31 -165 -45 -208 -19 -245 178
-256 59 -3 135 -7 168 -9 33 -2 90 -4 128 -6 l67 -2 0 -413 0 -413 -312 1
c-199 0 -328 -4 -354 -11 -87 -23 -142 -85 -168 -189 -8 -32 -11 -183 -11
-482 l0 -435 35 -69 c24 -48 45 -75 71 -91 40 -26 121 -52 184 -60 50 -6 123
-51 152 -94 33 -49 42 -92 46 -222 2 -64 7 -120 10 -125 3 -5 8 -25 11 -44 6
-39 38 -149 55 -193 6 -16 11 -29 11 -30 0 -2 -83 -3 -184 -3 -280 0 -269 14
-269 -357 0 -375 -7 -364 256 -366 176 -1 216 9 241 58 7 14 40 106 72 203
l58 177 55 -61 c116 -128 312 -255 483 -312 189 -64 54 -59 1838 -62 1382 -2
1638 0 1715 12 251 40 477 156 656 333 104 104 158 180 238 331 103 197 149
348 156 508 2 53 6 108 10 122 4 19 56 58 208 158 111 74 328 217 482 319 154
101 289 188 301 193 12 5 37 27 57 50 42 50 45 69 43 280 -3 177 -12 206 -71
235 -37 17 -60 16 -185 -10 -14 -3 -38 -8 -55 -11 -16 -3 -61 -11 -100 -19
-88 -18 -217 -42 -319 -60 -43 -8 -87 -17 -98 -21 -18 -5 -18 7 -16 343 l3
348 50 6 c73 9 180 19 260 25 114 8 143 12 165 24 29 15 60 69 60 103 0 44
-137 311 -293 572 -191 319 -394 593 -651 878 -48 54 -98 105 -111 113 -50 32
-125 14 -160 -39 -18 -29 -21 -64 -12 -152 22 -222 32 -975 15 -1210 -4 -55
-10 -149 -14 -210 l-6 -110 30 -35 c29 -34 31 -35 106 -35 l76 1 0 -357 0
-356 -57 -12 c-32 -6 -113 -22 -179 -35 -184 -36 -289 -94 -436 -238 -91 -89
-185 -155 -269 -188 -112 -43 -181 -50 -534 -50 l-332 0 -1 496 0 496 222 -6
c121 -4 295 -9 386 -12 280 -11 325 -10 354 9 69 45 167 330 202 586 3 25 7
57 9 70 28 175 27 787 0 1066 -2 17 -6 66 -9 110 -3 44 -8 91 -11 105 -2 14
-7 50 -10 80 -3 30 -8 71 -10 90 -2 19 -7 58 -10 85 -3 28 -8 61 -10 75 -2 14
-7 43 -10 65 -3 23 -7 52 -10 65 -3 14 -7 45 -10 70 -3 25 -7 56 -10 70 -7 34
-11 57 -20 110 -4 25 -9 54 -11 65 -2 11 -9 47 -14 80 -6 33 -15 80 -20 105
-5 25 -12 56 -14 70 -14 85 -37 128 -83 154 -7 4 -50 15 -95 25 -84 19 -440
100 -468 106 -8 2 -76 17 -150 34 -74 17 -148 35 -165 39 l-30 8 0 139 0 139
25 7 c14 4 113 32 220 63 107 30 209 60 225 65 17 5 90 26 163 47 130 36 148
49 86 60 -16 2 -36 7 -44 11 -8 3 -19 7 -25 8 -5 2 -160 46 -343 98 -290 84
-336 100 -354 123 -33 41 -58 61 -97 80 -41 20 -123 27 -161 15z"/>
</g>
</svg>
