<svg xmlns="http://www.w3.org/2000/svg" viewBox="0 0 495 495">
    <path fill="#cc4b4c" d="M269.3 43 329 26 269.3 9" />
    <path fill="#cbb292"
        d="M239.4 62.4v-45c0-9.4 7.6-17 17-17a16.7 16.7 0 0 1 12 5 16.7 16.7 0 0 1 5.1 12v52.8zM273.5 286V380h-34.1v-96.7m-145-54.3v77.8H60.1v-80.4M435.7 333v-66.3l-34.2 6.1v69zm0 0" />
    <path fill="#804537"
        d="M494.6 348.8c-1.9 4.5-6.6 6.3-10.4 8.9L476 363l-21.2 14a15961 15961 0 0 0-34.5 22.7l-1.6 1a34 34 0 0 0-1 11.4l-1.3 2.6c-14.4 28.5-54 46.6-86 46.6H118.6c-34.7 0-71.1-21.3-84-51.3.3-7.8-5.1-14.6-12.7-16.2a37.6 37.6 0 0 1-14.5-4.2 25.3 25.3 0 0 1-7-21.5l.2-46A24.7 24.7 0 0 1 6.2 303a24.3 24.3 0 0 1 16.1-4h92.3a26.4 26.4 0 0 1 14.8 3c7.5 5 7.7 15.6 9.2 24.4a49 49 0 0 0 48.3 41h129a51.4 51.4 0 0 0 35.8-14.6 57.7 57.7 0 0 1 27.2-18.3c29.9-5.5 59.7-11.3 89.6-17l16.7-3.2a8.6 8.6 0 0 1 7 1.8 8.6 8.6 0 0 1 3.2 6.6c0 4.4 0 8.6.2 10.5a53.2 53.2 0 0 1-1 15.6zm0 0" />
    <path fill="#7f5b53"
        d="m417.6 412.1-.1 3.4a104.2 104.2 0 0 1-3.4 14.3 89.5 89.5 0 0 1-5.7 13.5l-2.6 5.4a84.5 84.5 0 0 1-75.4 46.6h-212a84 84 0 0 1-83.8-83.9V410c12.8 30 49.2 51.3 83.9 51.3h211.9c31.9 0 71.5-18.1 85.9-46.6zm0 0" />
    <path fill="#c9d4df"
        d="M167.8 37.5 336.5 76a8.5 8.5 0 0 1 6.4 6.5c5.9 28 31 158.9 1.5 212.3a8.3 8.3 0 0 1-7.6 4l-171.3-5.4a8.5 8.5 0 0 1-8-10.7 506.3 506.3 0 0 0 0-234.9 8.5 8.5 0 0 1 2.3-8 8.5 8.5 0 0 1 8-2.2zM30.5 80 121 100a8.4 8.4 0 0 1 6.5 6.6c4.2 21 18 98.3 1.8 132.7a8.5 8.5 0 0 1-8.2 5L28 239a8.4 8.4 0 0 1-6.3-3.4 8.4 8.4 0 0 1-1.4-7 310.8 310.8 0 0 0 0-138.6 8.4 8.4 0 0 1 2.4-7.7 8.4 8.4 0 0 1 7.8-2.3zm356 80.6a620.3 620.3 0 0 1 .1 109.8 8.4 8.4 0 0 0 2.3 7.3 8.4 8.4 0 0 0 7.3 2.4c16.4-2.5 46.9-6.8 69.7-8.1a8.4 8.4 0 0 0 6.7-4 8.4 8.4 0 0 0 .5-7.9 409 409 0 0 0-72-105.8 8.4 8.4 0 0 0-9.6-2 8.4 8.4 0 0 0-5 8.3zm0 0" />
    <path fill="#cbb292"
        d="M154 410a8.5 8.5 0 0 1-17 0 8.5 8.5 0 0 1 17 0zm34.2 0a8.5 8.5 0 1 1-17 0 8.5 8.5 0 0 1 17 0zm34.1 0a8.5 8.5 0 1 1-17 0 8.5 8.5 0 0 1 17 0zm34.2 0a8.5 8.5 0 1 1-17.1 0 8.5 8.5 0 0 1 17 0zm34 0a8.5 8.5 0 1 1-17 0 8.5 8.5 0 0 1 17 0zm34.2 0a8.5 8.5 0 1 1-17 0c0-4.7 3.8-8.5 8.5-8.5a8.5 8.5 0 0 1 8.5 8.5zm0 0" />
    <path fill="#804537"
        d="m53.4 464.3-8.3 25.2a8.6 8.6 0 0 1-8.1 5.8H17.5a8.5 8.5 0 0 1-8.5-8.5v-34.2a8.5 8.5 0 0 1 8.5-8.5h23.7" />
</svg>