<svg xmlns="http://www.w3.org/2000/svg" viewBox="0 0 642 494">
   <path fill="#cc4b4c" d="m348.6 42.3 77.3-17-77.3-17.1" style="stroke-width:1.13784" />
   <path fill="#cbb292"
      d="M310 61.7v-45c0-9.4 9.8-17 22-17a21.6 16.7 0 0 1 15.6 5 21.6 16.7 0 0 1 6.5 12v52.7zM354 285.2v94.2H310v-96.8m-187.8-54.3v77.8H78v-80.3M564 332.2v-66.3l-44.2 6.1v69zm0 0"
      style="stroke-width:1.13784" />
   <path fill="#804537"
      d="M640.4 348c-2.4 4.6-8.6 6.4-13.5 9l-10.7 5.3-27.5 14A20664.7 15961 0 0 0 544 399l-2 1a44 34 0 0 0-1.4 11.4l-1.6 2.5c-18.6 28.5-70 46.6-111.3 46.6H153.4c-44.9 0-92-21.2-108.6-51.3.2-7.8-6.7-14.6-16.6-16.2a48.7 37.6 0 0 1-18.8-4.2 32.7 25.3 0 0 1-9-21.5l.2-46a32 24.7 0 0 1 7.4-19 31.5 24.3 0 0 1 20.9-4l119.5-.1a34.1 26.4 0 0 1 19.1 3c9.7 5 10 15.6 12 24.5 5 23.6 31.5 40.9 62.5 40.9h167a66.5 51.4 0 0 0 46.3-14.6 74.6 57.7 0 0 1 35.3-18.2l116-17 21.6-3.2a11.1 8.6 0 0 1 9.1 1.8 11.1 8.6 0 0 1 4 6.5c0 4.5.2 8.6.3 10.5a68.9 53.2 0 0 1-1.2 15.6zm0 0"
      style="stroke-width:1.13784" />
   <path fill="#7f5b53"
      d="M540.6 411.4v3.4a134.9 104.2 0 0 1-4.4 14.2 115.9 89.5 0 0 1-7.4 13.6l-3.4 5.4c-18.6 28.5-56.4 46.5-97.7 46.6H153.4c-60-.2-108.5-37.6-108.6-84v-1.4c16.6 30 63.7 51.3 108.6 51.3h274.3c41.3 0 92.7-18 111.3-46.6zm0 0"
      style="stroke-width:1.13784" />
   <path fill="#c9d4df"
      d="m217.2 36.8 218.4 38.4a11 8.5 0 0 1 8.4 6.5c7.6 28 40.1 158.9 1.9 212.3a10.8 8.3 0 0 1-9.9 4.1l-221.8-5.5A11 8.5 0 0 1 204 282a655.5 506.3 0 0 0 .1-234.8 11 8.5 0 0 1 3-8 11 8.5 0 0 1 10.2-2.3zM39.6 79.3l117 19.8a10.9 8.4 0 0 1 8.4 6.6c5.5 21 23.4 98.3 2.4 132.7a11 8.5 0 0 1-10.6 5l-120.4-5.1a10.8 8.4 0 0 1-8.2-3.4 10.9 8.4 0 0 1-1.8-7 402.4 310.8 0 0 0 .1-138.7 10.9 8.4 0 0 1 3-7.7 11 8.4 0 0 1 10-2.2zm460.7 80.5a803.1 620.3 0 0 1 .3 109.9 11 8.4 0 0 0 3 7.2 11 8.4 0 0 0 9.3 2.5c21.3-2.5 60.8-6.9 90.3-8.2a10.9 8.4 0 0 0 8.7-4 11 8.4 0 0 0 .6-7.8 529.6 409 0 0 0-93.3-105.8 11 8.4 0 0 0-12.3-2 11 8.4 0 0 0-6.6 8.2zm0 0"
      style="stroke-width:1.13784" />
   <path fill="#cbb292"
      d="M199.5 409.2a11 8.5 0 0 1-22.1 0c0-4.7 5-8.5 11-8.5 6.1 0 11 3.8 11 8.5zm44.1 0a11 8.5 0 1 1-22 0 11 8.5 0 0 1 22 0zm44.2 0a11 8.5 0 1 1-22 0 11 8.5 0 0 1 22 0zm44.2 0a11 8.5 0 1 1-22 0 11 8.5 0 0 1 22 0zm44.2 0a11 8.5 0 1 1-22 0c0-4.7 4.9-8.5 11-8.5 6 0 11 3.8 11 8.5zm44.2 0a11 8.5 0 1 1-22 0c0-4.7 4.9-8.5 11-8.5a11 8.5 0 0 1 11 8.5zm0 0"
      style="stroke-width:1.13784" />
   <path fill="#804537"
      d="m69.2 463.5-10.8 25.3a11.2 8.6 0 0 1-10.5 5.8H22.7c-6.1 0-11-3.9-11-8.6V452a11 8.5 0 0 1 11-8.5h30.6"
      style="stroke-width:1.13784" />
</svg>