<svg xmlns="http://www.w3.org/2000/svg" width="128" height="128" aria-hidden="true" class="iconify iconify--noto" viewBox="0 0 128 128"><path fill="#feba02" d="m40 95 2 12c0 1-7 2-11 5q-6 2-5 6c2 2 6-2 18-2q16 0 13-3-2-2-6-4l-3-1V97z"/><path fill="#feba02" d="M62 103v10l-5 3c-4 1-11 2-11 7 0 2 13-1 21-1s12 1 12-2q-1-4-6-4l-3-3v-10z"/><linearGradient id="a" x1="46.9" x2="65.9" y1="97.1" y2="33.6" gradientUnits="userSpaceOnUse"><stop offset=".1" stop-color="#79da88"/><stop offset=".3" stop-color="#57cd75"/><stop offset=".6" stop-color="#19b553"/><stop offset=".8" stop-color="#01ab46"/></linearGradient><path fill="url(#a)" d="m42 8 9-1s5 2 10 9c6 9 5 26 5 26l18 47 2 15s-16 2-31 0c-18-2-37-18-36-43 0-24 19-48 19-48z"/><path fill="#ffd51d" d="M21 17s-7 2-9 10 2 15 3 15c1 1 2-3 2-3l4 4 3 1q4-3 5-11l1-20z"/><path fill="#ff2b23" d="M30 28s8-1 12-4 7-6 8-11l1-5S39 1 29 6s-9 14-9 14z"/><path fill="#ff600d" d="m30 29-8 5-4 3q-4 3-3 5 0 0 4-3l8-5 2-1z"/><path fill="#a02a1b" d="M32 27q2-1-3-7c-3-4-9-5-9-5v2l6 6 3 7z"/><path fill="#ec80af" d="M16 20s4 1 7 3q4 3 5 7c1 4 3-3 1-6s-3-5-7-7q-5 0-6 3"/><path fill="#fbd3b3" d="M49 26s-3-9-10-9q-9 3-8 9 0 6 8 6c6 0 10-6 10-6"/><path fill="#312f2a" d="M44 25q-1 3-4 4-5 0-5-4 0-5 5-5 4 1 4 5"/><path fill="#01ab46" d="M86 81s3 5 11 10l16 10 5 3c0 1-8 7-16 6q-12-2-16-5c-4-3-7-15-7-15z"/><path fill="#b7d019" d="M66 42s-12 3-17 11q-6 12 1 27c5 10 17 18 23 20q11 5 18 4c7-1-3-25-10-39-7-13-15-23-15-23"/></svg>